# xmcd
#
# Track frame offsets:
#	150
#	18789
#	40826
#	59753
#	79050
#	95703
#	113621
#	132903
#	152716
#	169717
#
# Disc length: 2547 seconds
#
# Revision: 1
# Processed by: cddbd v1.5.2PL0 Copyright (c) Steve Scherf et al.
# Submitted via: EasyCDDAExtractor 16.0.4.1
#
DISCID=7909f10a
DTITLE=Cẩm Ly, Quốc Đại - Nhớ Người Yêu
DYEAR=2008
DGENRE=Pop
TTITLE0=Mất Nhau Rồi
TTITLE1=Bài Tango Cho Em
TTITLE2=Lệ Đá
TTITLE3=Nhớ Người Yêu
TTITLE4=Nắng Lên Xóm Nghèo
TTITLE5=Mưa Rơi
TTITLE6=Quê Mẹ
TTITLE7=Tiếng Hát Học Trò
TTITLE8=Hai Phương Trời Cách Biệt
TTITLE9=Mùa Xuân Đầu Tiên
EXTD=
EXTT0=
EXTT1=
EXTT2=
EXTT3=
EXTT4=
EXTT5=
EXTT6=
EXTT7=
EXTT8=
EXTT9=
PLAYORDER=
